<?xml version="1.0" encoding="UTF-8"?>
<svg version="1.1" xmlns="http://www.w3.org/2000/svg" width="615" height="615">
<path d="M0 0 C0.16174959 4.93336236 0.02319149 9.40384514 -0.9375 14.25 C-4.46018036 32.31310566 -3.49538539 50.88149963 -1 69 C-0.84724609 70.16233154 -0.84724609 70.16233154 -0.69140625 71.34814453 C2.24332531 93.37221795 8.37462676 115.38672542 19 135 C19.45761719 135.92683594 19.91523438 136.85367188 20.38671875 137.80859375 C22.17803685 141.35219397 24.09417554 144.80269334 26.0625 148.25 C26.5894043 149.18585938 26.5894043 149.18585938 27.12695312 150.140625 C28.58815159 152.70393725 29.90361797 154.90361797 32 157 C32 157.99 32 158.98 32 160 C32.66 160 33.32 160 34 160 C35.7265625 162.1171875 35.7265625 162.1171875 37.625 164.875 C38.25664062 165.77992188 38.88828125 166.68484375 39.5390625 167.6171875 C41 170 41 170 41 172 C41.99 172.33 42.98 172.66 44 173 C44 173.99 44 174.98 44 176 C44.59280762 176.25547607 45.18561523 176.51095215 45.79638672 176.77416992 C48.22336908 178.12425616 49.49749643 179.47857158 51.2578125 181.61328125 C65.71802266 198.66802672 82.54134608 212.97185512 102 224 C103.1446875 224.65355469 104.289375 225.30710937 105.46875 225.98046875 C115.30180657 231.46760626 125.55576041 235.82033262 136 240 C137.51207031 240.61875 137.51207031 240.61875 139.0546875 241.25 C171.39213093 253.83113301 208.71195429 254.28936522 242.6875 250.1875 C243.3733316 250.105 244.05916321 250.0225 244.76577759 249.9375 C252.4247556 248.99080294 259.85621632 247.69877693 267.31347656 245.7097168 C269.71256555 245.07593347 272.10558387 244.53950688 274.53515625 244.0390625 C301.41125195 238.15519709 329.01703399 225.46475932 351.19140625 209.24609375 C353 208 353 208 355.37890625 206.61328125 C362.55054141 202.19914516 368.94683504 196.37517298 374.66015625 190.21484375 C376 189 376 189 378 189 C377.04371025 203.02558305 367.89442118 216.33394817 361.015625 228.23876953 C359.334572 231.15394173 357.66797123 234.0773272 356 237 C355.34 237 354.68 237 354 237 C353.92652344 237.52078125 353.85304688 238.0415625 353.77734375 238.578125 C352.66556492 242.04195854 350.63285929 244.80160101 348.5625 247.75 C348.15451172 248.35199219 347.74652344 248.95398438 347.32617188 249.57421875 C346.27295908 251.08960812 345.14181957 252.5502034 344 254 C343.34 254 342.68 254 342 254 C341.9071875 254.8353125 341.9071875 254.8353125 341.8125 255.6875 C340.66328631 258.95833897 338.47208653 260.58370103 336 263 C334.2828518 264.86693059 332.57493647 266.74238379 330.875 268.625 C321.25323499 279.15241955 311.38725562 288.44020366 300 297 C299.07316406 297.71027344 298.14632813 298.42054688 297.19140625 299.15234375 C281.0046929 311.29839166 262.91241497 320.90517314 244 328 C242.70642578 328.51820313 242.70642578 328.51820313 241.38671875 329.046875 C190.77964059 348.74085757 129.68770219 347.83889738 79.4375 327.5625 C78.303125 327.046875 77.16875 326.53125 76 326 C74.87658203 325.51466797 74.87658203 325.51466797 73.73046875 325.01953125 C64.91208464 321.1457883 56.47595794 316.56091992 48 312 C48 311.34 48 310.68 48 310 C47.44441406 309.896875 46.88882813 309.79375 46.31640625 309.6875 C38.23894642 307.29014261 31.12566094 300.67515921 24.79296875 295.34765625 C22.8335847 293.70067749 20.86728428 292.08632728 18.86328125 290.49609375 C17.85652344 289.69300781 16.84976563 288.88992188 15.8125 288.0625 C14.89082031 287.33160156 13.96914062 286.60070312 13.01953125 285.84765625 C12.35308594 285.23792969 11.68664062 284.62820313 11 284 C11 283.34 11 282.68 11 282 C9.68 281.34 8.36 280.68 7 280 C7 279.34 7 278.68 7 278 C6.01 277.67 5.02 277.34 4 277 C1.45306033 274.5322398 -0.73359585 271.72487522 -3 269 C-4.19882813 267.59621094 -4.19882813 267.59621094 -5.421875 266.1640625 C-6.23140625 265.20242188 -7.0409375 264.24078125 -7.875 263.25 C-8.63554687 262.34765625 -9.39609375 261.4453125 -10.1796875 260.515625 C-11.85029593 258.20688717 -12.59747234 256.77873933 -13 254 C-13.66 254 -14.32 254 -15 254 C-16.51489713 251.92459094 -17.89497202 249.86452217 -19.25 247.6875 C-19.65331543 247.048125 -20.05663086 246.40875 -20.47216797 245.75 C-23.8859384 240.2879673 -27.04392472 234.72346491 -30 229 C-30.5878125 227.8759375 -31.175625 226.751875 -31.78125 225.59375 C-35.40868856 218.57032977 -38.55433209 211.52923965 -41 204 C-41.32613281 203.01902344 -41.65226562 202.03804687 -41.98828125 201.02734375 C-54.9396046 160.67322041 -56.53673968 114.75689075 -44 74 C-43.72800781 73.05125 -43.45601562 72.1025 -43.17578125 71.125 C-36.17114745 48.30447359 -24.39516664 24.57598197 -8 7 C-7.34 7 -6.68 7 -6 7 C-5.731875 6.401875 -5.46375 5.80375 -5.1875 5.1875 C-2.37142857 0 -2.37142857 0 0 0 Z " fill="#FEFEFE" transform="translate(161,169)"/>
<path d="M0 0 C1.98 0.495 1.98 0.495 4 1 C4 3.97 4 6.94 4 10 C3.01 10.495 3.01 10.495 2 11 C2 8.69 2 6.38 2 4 C1.01 4.33 0.02 4.66 -1 5 C-0.67 3.35 -0.34 1.7 0 0 Z " fill="#3B3B3B" transform="translate(559,578)"/>
<path d="M0 0 C-0.66 3.3 -1.32 6.6 -2 10 C-2.66 10 -3.32 10 -4 10 C-4 7.03 -4 4.06 -4 1 C-2 0 -2 0 0 0 Z " fill="#545454" transform="translate(558,578)"/>
<path d="M0 0 C0.66 0 1.32 0 2 0 C2 0.99 2 1.98 2 3 C1.34 3 0.68 3 0 3 C0 2.01 0 1.02 0 0 Z " fill="#090908" transform="translate(572,578)"/>
<path d="M0 0 C0.66 0 1.32 0 2 0 C2 0.66 2 1.32 2 2 C1.34 2 0.68 2 0 2 C0 1.34 0 0.68 0 0 Z " fill="#090909" transform="translate(575,580)"/>
<path d="M0 0 C0.66 0 1.32 0 2 0 C1.67 0.66 1.34 1.32 1 2 C0.67 1.34 0.34 0.68 0 0 Z " fill="#000000" transform="translate(567,585)"/>
<path d="" fill="#000000" transform="translate(0,0)"/>
</svg>
